<?xml version="1.0" encoding="UTF-8" standalone="no"?>
<!-- Created with Inkscape (http://www.inkscape.org/) -->

<svg
   width="105mm"
   height="148mm"
   viewBox="0 0 105 148"
   version="1.1"
   id="svg1"
   xml:space="preserve"
   xmlns="http://www.w3.org/2000/svg"
   xmlns:svg="http://www.w3.org/2000/svg"><defs
     id="defs1" /><g
     id="layer1"><rect
       style="display:none;fill:#ffffff;fill-opacity:1;stroke:none;stroke-width:0.25;stroke-dasharray:3, 0.25"
       id="rect6"
       width="105"
       height="147.99998"
       x="0"
       y="0" /><path
       style="fill:#000000;stroke-width:0.558804"
       d="M 51.222928,79.634703 C 47.289334,77.52261 43.967227,73.852097 41.956511,69.396473 40.794675,66.821917 40.559859,65.103139 40.42992,58.222319 L 40.33569,53.232362 H 52.5 64.66431 l -0.07834,5.433509 c -0.04309,2.98843 -0.150049,5.932506 -0.2377,6.542389 -0.799023,5.559651 -5.123019,11.503155 -10.52397,14.465614 -0.616822,0.338331 -1.18235,0.614035 -1.25673,0.612676 -0.07438,-0.0013 -0.679471,-0.29469 -1.344646,-0.651847 z m 2.977229,-1.046104 c 1.710701,-1.074012 2.922027,-2.050563 4.123946,-3.324661 1.071771,-1.136134 2.31394,-2.7683 2.31394,-3.040435 0,-0.186571 -7.950452,-17.51652 -8.120012,-17.699543 -0.05757,-0.06214 -1.790938,3.397563 -3.851932,7.688231 -2.060994,4.290667 -3.946094,8.207995 -4.18911,8.705173 l -0.441848,0.903959 0.675536,0.944173 c 1.882575,2.631211 4.266658,4.801664 6.834555,6.222136 0.406589,0.224911 0.878799,0.410134 1.049356,0.411607 0.170557,0.0015 0.893062,-0.363315 1.605569,-0.81064 z"
       id="path1" /><path
       style="font-size:4.45716px;line-height:1.3;font-family:Besley;-inkscape-font-specification:Besley;text-align:center;text-anchor:middle;stroke-width:0.143574;stroke-dasharray:1.72288, 0.143574"
       d="m 42.088066,94.936264 q 0,0.05126 0.01337,0.06909 0.01337,0.0156 0.0624,0.0156 h 1.288119 q 0.05571,0 0.06909,-0.0156 0.0156,-0.01783 0.0156,-0.07354 v -0.07131 q 0,-0.05126 -0.01337,-0.06686 -0.01337,-0.01783 -0.06686,-0.01783 h -0.36103 q -0.06017,0 -0.078,-0.0156 -0.0156,-0.0156 -0.0156,-0.07354 v -0.588345 q 0,-0.07577 0.0089,-0.104743 0.0089,-0.02897 0.04457,-0.06463 l 0.537087,-0.552688 q 0.04457,-0.0468 0.07354,-0.04457 0.02897,0.0022 0.07131,0.05794 l 0.982804,1.297033 q 0.0312,0.04012 0.02006,0.06463 -0.0089,0.02451 -0.08692,0.02451 h -0.229543 q -0.05794,0 -0.07131,0.02006 -0.01337,0.01783 -0.01337,0.078 v 0.07131 q 0,0.04457 0.01337,0.06017 0.01337,0.0156 0.0624,0.0156 h 1.31932 q 0.05794,0 0.06686,-0.0089 0.0089,-0.01114 0.0089,-0.06686 v -0.08023 q 0,-0.05794 -0.01783,-0.07354 -0.0156,-0.0156 -0.07132,-0.0156 h -0.298629 q -0.07577,0 -0.106972,-0.02006 -0.0312,-0.02006 -0.0624,-0.06017 l -1.259147,-1.613492 q -0.02897,-0.03789 -0.02897,-0.0624 0.0022,-0.02674 0.03566,-0.0624 l 0.931546,-0.958289 q 0.03789,-0.03789 0.07354,-0.05572 0.03566,-0.02006 0.118115,-0.02006 H 45.4309 q 0.06017,0 0.07354,-0.01783 0.0156,-0.01783 0.0156,-0.08023 v -0.05794 q 0,-0.05571 -0.01337,-0.07131 -0.01337,-0.01783 -0.06686,-0.01783 h -1.163319 q -0.05126,0 -0.07354,0.01337 -0.02006,0.01114 -0.02006,0.06686 v 0.07131 q 0,0.05571 0.01337,0.07577 0.0156,0.01783 0.07577,0.01783 h 0.262973 q 0.07577,0 0.08691,0.02006 0.01337,0.01783 -0.02451,0.05572 l -1.508749,1.562234 q -0.05794,0.06017 -0.07354,0.04903 -0.01337,-0.01337 -0.01337,-0.1092 V 92.04804 q 0,-0.078 0.0156,-0.100286 0.0156,-0.02451 0.09137,-0.02451 h 0.325372 q 0.06017,0 0.08023,-0.01337 0.02229,-0.0156 0.02229,-0.08023 v -0.08469 q 0,-0.04234 -0.0156,-0.05349 -0.01337,-0.01337 -0.05126,-0.01337 h -1.319319 q -0.03789,0 -0.05126,0.01337 -0.01114,0.01337 -0.01114,0.05349 v 0.115886 q 0,0.04903 0.01114,0.05571 0.01114,0.0067 0.06017,0.0067 h 0.347659 q 0.05349,0 0.0624,0.0089 0.0089,0.0089 0.0089,0.0624 v 2.678753 q 0,0.06017 -0.0156,0.08246 -0.01337,0.02006 -0.078,0.02006 H 42.15938 q -0.04234,0 -0.05794,0.01337 -0.01337,0.01337 -0.01337,0.05794 z m 4.336818,-1.118747 q 0,-0.173829 0.02451,-0.343201 0.02674,-0.171601 0.09137,-0.309773 0.06463,-0.138172 0.180515,-0.220629 0.118115,-0.08469 0.300859,-0.08469 0.242915,0 0.372172,0.147086 0.129258,0.147086 0.176058,0.385544 0.04903,0.238458 0.04903,0.514802 0,0.17383 -0.02674,0.34543 -0.02451,0.169372 -0.08914,0.307544 -0.06463,0.138172 -0.182744,0.222858 -0.115886,0.08246 -0.298629,0.08246 -0.242916,0 -0.372173,-0.147087 -0.129258,-0.147086 -0.178287,-0.385544 -0.0468,-0.238458 -0.0468,-0.514802 z m -0.468002,0.08914 q 0,0.312002 0.115886,0.577203 0.118115,0.262972 0.354345,0.42343 0.236229,0.158229 0.595031,0.158229 0.358801,0 0.59503,-0.162686 0.23623,-0.164915 0.352116,-0.445716 0.118115,-0.28303 0.118115,-0.639603 0,-0.312001 -0.118115,-0.574974 -0.115886,-0.265201 -0.352116,-0.42343 -0.236229,-0.160457 -0.59503,-0.160457 -0.358802,0 -0.595031,0.164914 -0.23623,0.162687 -0.354345,0.445716 -0.115886,0.280802 -0.115886,0.637374 z m 2.444758,1.047433 q 0,0.04011 0.01337,0.05349 0.01337,0.01337 0.04903,0.01337 h 1.056347 q 0.03566,0 0.04457,-0.02451 0.0089,-0.02451 0.0089,-0.05572 v -0.08914 q 0,-0.05126 -0.01783,-0.0624 -0.0156,-0.01337 -0.0624,-0.01337 H 49.25294 q -0.06909,0 -0.08246,-0.01114 -0.01114,-0.01337 -0.01114,-0.08246 v -0.922632 q 0,-0.229544 0.06463,-0.421202 0.06686,-0.193886 0.205029,-0.309772 0.140401,-0.115886 0.358802,-0.115886 0.1872,0 0.260744,0.133714 0.07354,0.131487 0.07354,0.378859 v 1.261376 q 0,0.06017 -0.01783,0.07577 -0.01783,0.01337 -0.08023,0.01337 H 49.85911 q -0.0624,0 -0.078,0.02006 -0.0156,0.01783 -0.0156,0.08246 v 0.06686 q 0,0.04903 0.01783,0.0624 0.02006,0.01337 0.06686,0.01337 h 0.949375 q 0.05794,0 0.07132,-0.01783 0.01337,-0.01783 0.01337,-0.07131 v -0.08023 q 0,-0.05349 -0.02451,-0.06463 -0.02452,-0.01114 -0.07354,-0.01114 H 50.63022 q -0.05571,0 -0.08246,-0.01114 -0.02451,-0.01114 -0.02451,-0.07354 v -0.931546 q 0,-0.229544 0.05571,-0.421202 0.05794,-0.193886 0.193886,-0.309772 0.138172,-0.115886 0.378859,-0.115886 0.1872,0 0.260743,0.133714 0.07354,0.131487 0.07354,0.378859 v 1.261376 q 0,0.0624 -0.02006,0.07577 -0.01783,0.01337 -0.08246,0.01337 h -0.231772 q -0.05126,0 -0.06686,0.0156 -0.01337,0.0156 -0.01337,0.06909 v 0.0624 q 0,0.06909 0.02229,0.08469 0.02451,0.01337 0.08914,0.01337 h 0.962746 q 0.06463,0 0.08246,-0.0156 0.02006,-0.0156 0.02006,-0.08246 v -0.08469 q 0,-0.03343 -0.0089,-0.0468 -0.0089,-0.0156 -0.04012,-0.0156 h -0.218401 q -0.0624,0 -0.078,-0.01783 -0.0156,-0.02006 -0.0156,-0.08023 v -1.301491 q 0,-0.358801 -0.138172,-0.537088 -0.135943,-0.180514 -0.494745,-0.180514 -0.234001,0 -0.396687,0.102514 -0.160458,0.102515 -0.285258,0.247373 -0.02897,0.03343 -0.05126,0.03789 -0.02006,0.0022 -0.05126,-0.05349 -0.08246,-0.156001 -0.209486,-0.245144 -0.127029,-0.08914 -0.369945,-0.08914 -0.222858,0 -0.381087,0.08914 -0.158229,0.08914 -0.260744,0.234001 -0.02674,0.04011 -0.0468,0.06463 -0.02006,0.02229 -0.0312,-0.0022 -0.01114,-0.02674 -0.01114,-0.131486 V 92.77904 q 0,-0.05126 -0.02006,-0.0624 -0.02006,-0.01337 -0.06909,-0.01337 h -0.583888 q -0.05571,0 -0.07131,0.01783 -0.01337,0.01783 -0.01337,0.07577 v 0.07132 q 0,0.05349 0.0156,0.06686 0.01783,0.01337 0.07354,0.01337 h 0.182744 q 0.04457,0 0.06463,0.01114 0.02006,0.01114 0.02006,0.06017 v 1.671435 q 0,0.05572 -0.01783,0.07131 -0.01783,0.01337 -0.07577,0.01337 h -0.205029 q -0.0312,0 -0.04457,0.0089 -0.01337,0.0089 -0.01337,0.04011 z m 4.729046,-1.092004 q 0,-0.254058 0.08023,-0.474688 0.08023,-0.222858 0.227316,-0.358801 0.149314,-0.138172 0.352115,-0.138172 0.187201,0 0.327601,0.138172 0.140401,0.135943 0.218401,0.358801 0.078,0.22063 0.078,0.474688 0,0.254058 -0.078,0.476916 -0.078,0.220629 -0.218401,0.358801 -0.1404,0.135944 -0.327601,0.135944 -0.202801,0 -0.352115,-0.135944 -0.147087,-0.138172 -0.227316,-0.358801 -0.08023,-0.222858 -0.08023,-0.476916 z m -0.802289,-1.002861 q 0,0.04903 0.01114,0.06909 0.01337,0.02006 0.06686,0.02006 h 0.222858 q 0.05571,0 0.078,0.01337 0.02229,0.01337 0.02229,0.07131 v 2.754525 q 0,0.0624 -0.01337,0.08246 -0.01114,0.02006 -0.07354,0.02006 h -0.254058 q -0.04234,0 -0.05126,0.0156 -0.0089,0.0156 -0.0089,0.06017 v 0.08914 q 0,0.04234 0.01114,0.06017 0.01337,0.02006 0.05794,0.02006 h 1.065261 q 0.0468,0 0.05794,-0.01114 0.01114,-0.0089 0.01114,-0.05794 v -0.09137 q 0,-0.05349 -0.01337,-0.06909 -0.01337,-0.0156 -0.06463,-0.0156 h -0.218401 q -0.06686,0 -0.08692,-0.01783 -0.01783,-0.0156 -0.01783,-0.08469 v -0.940461 q 0,-0.178286 0.02006,-0.191658 0.02006,-0.0156 0.06909,0.05794 0.111429,0.164915 0.276344,0.256287 0.167143,0.09137 0.374401,0.09137 0.265201,0 0.490288,-0.140401 0.225086,-0.142629 0.36103,-0.410059 0.138172,-0.269658 0.138172,-0.648516 0,-0.378859 -0.138172,-0.648517 -0.135944,-0.269658 -0.36103,-0.412287 -0.225087,-0.142629 -0.490288,-0.142629 -0.225087,0 -0.40783,0.118114 Q 53.28,92.892656 53.1708,93.091 q -0.02006,0.03566 -0.0312,0.0312 -0.0089,-0.0067 -0.0089,-0.08914 v -0.254058 q 0,-0.05126 -0.0156,-0.0624 -0.0156,-0.01337 -0.06686,-0.01337 h -0.637374 q -0.04234,0 -0.0624,0.01114 -0.02006,0.01114 -0.02006,0.06017 z m 3.073215,-1.069719 q 0.05126,0 0.06686,0.01337 0.0156,0.01337 0.0156,0.0624 v 2.834754 q 0,0.05349 -0.0089,0.06463 -0.0067,0.01114 -0.06017,0.01114 H 55.13864 q -0.04011,0 -0.04903,0.01783 -0.0067,0.01783 -0.0067,0.05794 v 0.08914 q 0,0.05349 0.01783,0.06686 0.02006,0.01337 0.06909,0.01337 h 1.011775 q 0.05794,0 0.08023,-0.01337 0.02451,-0.01337 0.02451,-0.07577 v -0.09806 q 0,-0.03566 -0.0156,-0.0468 -0.01337,-0.01114 -0.04457,-0.01114 H 55.9543 q -0.0624,0 -0.06686,-0.02006 -0.0022,-0.02006 -0.0022,-0.078 v -3.053155 q 0,-0.05794 -0.02228,-0.06909 -0.02006,-0.01114 -0.078,-0.01114 h -0.610631 q -0.04234,0 -0.06686,0.01114 -0.02451,0.0089 -0.02451,0.05571 v 0.08469 q 0,0.0468 0.01114,0.07131 0.01114,0.02228 0.0624,0.02228 z m 1.120979,2.117151 q 0,0.312002 0.118115,0.577203 0.120343,0.262972 0.352115,0.42343 0.231773,0.158229 0.568288,0.158229 0.28303,0 0.481374,-0.09806 0.198343,-0.09806 0.323144,-0.269658 0.1248,-0.173829 0.1872,-0.401144 0.0067,-0.02451 -0.0022,-0.03566 -0.0089,-0.01114 -0.04234,-0.01114 h -0.129258 q -0.03343,0 -0.04234,0.0156 -0.0089,0.01337 -0.01783,0.03789 -0.08914,0.245143 -0.265201,0.394458 -0.173829,0.149315 -0.43903,0.149315 -0.229544,0 -0.372173,-0.127029 -0.1404,-0.129258 -0.205029,-0.340973 -0.06463,-0.211715 -0.06463,-0.456859 0,-0.03788 0.01783,-0.05126 0.02006,-0.01337 0.05571,-0.01337 h 1.432977 q 0.0468,0 0.0624,-0.0089 0.01783,-0.01114 0.01783,-0.05571 0,-0.158229 -0.0312,-0.318687 -0.0312,-0.162687 -0.100286,-0.307544 -0.06909,-0.147087 -0.182744,-0.260744 -0.111429,-0.115886 -0.274115,-0.180515 -0.160458,-0.06686 -0.378859,-0.06686 -0.358801,0 -0.597259,0.164914 -0.23623,0.162687 -0.354344,0.445716 -0.118115,0.280802 -0.118115,0.637374 z m 0.521488,-0.240686 q -0.04012,0 -0.05126,-0.01114 -0.01114,-0.01114 -0.01114,-0.04457 0,-0.176058 0.06686,-0.349887 0.06686,-0.173829 0.202801,-0.289715 0.135943,-0.115886 0.340972,-0.115886 0.135944,0 0.234001,0.078 0.09806,0.078 0.162687,0.200572 0.06463,0.120343 0.09583,0.254058 0.0312,0.131486 0.0312,0.242915 0,0.02229 -0.01114,0.02897 -0.0089,0.0067 -0.05349,0.0067 z m 3.233674,0.920403 q 0.01114,-0.02897 0,-0.04011 -0.0089,-0.01114 -0.03566,-0.02006 l -0.07131,-0.02452 q -0.03566,-0.01337 -0.04903,-0.0067 -0.01114,0.0067 -0.02674,0.04012 -0.05794,0.127029 -0.135943,0.196115 -0.07577,0.06686 -0.171601,0.06686 -0.08914,0 -0.142629,-0.06017 -0.05349,-0.06017 -0.05349,-0.193887 v -1.52212 q 0,-0.05126 0.02229,-0.0624 0.02229,-0.01114 0.06909,-0.01114 h 0.490287 q 0.04012,0 0.05571,-0.0067 0.01783,-0.0089 0.01783,-0.04903 V 92.77677 q 0,-0.0468 -0.0156,-0.06017 -0.01337,-0.01337 -0.05794,-0.01337 h -0.494744 q -0.04234,0 -0.06463,-0.01114 -0.02229,-0.01114 -0.02229,-0.05794 v -0.490287 q 0,-0.06463 -0.05794,-0.06463 H 59.41307 q -0.04903,0 -0.06017,0.01337 -0.01114,0.01337 -0.02006,0.05126 -0.04457,0.193886 -0.08246,0.307544 -0.03789,0.113657 -0.08691,0.167143 -0.04903,0.05349 -0.124801,0.06909 -0.07577,0.0156 -0.196115,0.0156 -0.04234,0 -0.05571,0.0089 -0.01114,0.0067 -0.01114,0.04903 v 0.120344 q 0,0.04457 0.0156,0.05571 0.0156,0.01114 0.0624,0.01114 h 0.265201 q 0.04012,0 0.05571,0.01783 0.0156,0.01783 0.0156,0.05794 v 1.613492 q 0,0.182743 0.104743,0.309772 0.104743,0.127029 0.34543,0.127029 0.173829,0 0.29863,-0.06463 0.127029,-0.06686 0.209486,-0.178286 0.08469,-0.111429 0.129258,-0.245144 z m 0.31423,-0.113657 q 0,0.280801 0.196115,0.436801 0.198343,0.156001 0.494744,0.156001 0.23623,0 0.374402,-0.05794 0.138172,-0.06017 0.209486,-0.135944 0.07132,-0.07577 0.106972,-0.1248 0.0312,-0.04234 0.04234,-0.04234 0.01337,0 0.02006,0.04011 0.0089,0.05349 0.03566,0.129258 0.02897,0.07577 0.1092,0.133715 0.08246,0.05794 0.249601,0.05794 h 0.0022 q 0.09137,0 0.176057,-0.0312 0.08692,-0.0312 0.160458,-0.09583 0.07577,-0.06463 0.127029,-0.162686 0.0156,-0.03566 -0.01337,-0.05349 l -0.08023,-0.04903 q -0.02897,-0.02229 -0.05126,0.0156 -0.05794,0.09137 -0.111429,0.118115 -0.05349,0.02674 -0.100287,0.02674 -0.0468,0 -0.08246,-0.0312 -0.03343,-0.0312 -0.03343,-0.09806 v -1.341605 q 0,-0.180515 -0.05794,-0.340973 -0.05571,-0.162686 -0.218401,-0.262972 -0.160457,-0.100286 -0.472459,-0.100286 -0.169372,0 -0.338744,0.04234 -0.167143,0.04011 -0.305315,0.118114 -0.138172,0.078 -0.222858,0.191658 -0.08246,0.113658 -0.08246,0.258515 0,0.147087 0.08023,0.202801 0.08023,0.05571 0.182744,0.05571 0.113657,0 0.178286,-0.07131 0.06686,-0.07354 0.06686,-0.187201 0,-0.08691 -0.0312,-0.120343 -0.0312,-0.03343 -0.0624,-0.05126 -0.0312,-0.02006 -0.0312,-0.06017 0,-0.04457 0.06909,-0.08469 0.06909,-0.04011 0.178286,-0.06463 0.109201,-0.02451 0.229544,-0.02451 0.178287,0 0.271887,0.06909 0.09583,0.06686 0.129258,0.184972 0.03566,0.118115 0.03566,0.26743 V 93.6303 q 0,0.04012 -0.01114,0.04903 -0.0089,0.0089 -0.0468,0.0089 h -0.218401 q -0.383316,0 -0.639602,0.109201 -0.256287,0.1092 -0.385545,0.287487 -0.129257,0.178286 -0.129257,0.387773 z m 0.45463,-0.06686 q 0,-0.1716 0.06686,-0.294172 0.06686,-0.122572 0.22063,-0.187201 0.153772,-0.06686 0.412287,-0.06686 h 0.231772 q 0.04457,0 0.04457,0.04457 v 0.26743 q 0,0.303087 -0.156001,0.474687 -0.156,0.171601 -0.383315,0.171601 -0.167144,0 -0.303087,-0.0936 -0.133715,-0.0936 -0.133715,-0.316459 z"
       id="text1"
       aria-label="Kompleta" /><g
       id="text1-5"
       style="font-size:3.33319px;line-height:1.3;font-family:Niramit;-inkscape-font-specification:Niramit;text-align:center;text-anchor:middle;stroke-width:0.147632;stroke-dasharray:1.77158, 0.147632"
       aria-label="OKRES ZWYKÅY I ADWENT"><path
         style="font-family:Besley;-inkscape-font-specification:Besley"
         d="m 31.822848,99.454781 q 0,0.266655 0.08166,0.499978 0.08333,0.231661 0.238323,0.408321 0.15666,0.17665 0.378318,0.27665 0.223323,0.0983 0.501645,0.0983 0.266655,0 0.486645,-0.0983 0.219991,-0.1 0.379984,-0.27665 0.159993,-0.17666 0.246656,-0.408321 0.08666,-0.233323 0.08666,-0.499978 0,-0.266655 -0.08333,-0.498312 -0.08166,-0.233323 -0.238323,-0.409982 -0.154993,-0.176659 -0.378317,-0.274989 -0.221657,-0.09999 -0.499978,-0.09999 -0.278322,0 -0.501645,0.09999 -0.221658,0.09833 -0.378318,0.274989 -0.154993,0.176659 -0.238323,0.409982 -0.08166,0.231657 -0.08166,0.498312 z m 0.383317,0 q 0,-0.228324 0.04667,-0.429982 0.04666,-0.201658 0.143327,-0.354984 0.09833,-0.154994 0.253322,-0.243323 0.15666,-0.08833 0.373318,-0.08833 0.218324,0 0.373317,0.08833 0.154993,0.08833 0.251656,0.243323 0.09833,0.153326 0.144993,0.354984 0.04666,0.201658 0.04666,0.429982 0,0.226657 -0.04166,0.429981 -0.04167,0.201658 -0.136661,0.356648 -0.09499,0.15333 -0.251655,0.24166 -0.15666,0.0883 -0.38665,0.0883 -0.216658,0 -0.373318,-0.0883 -0.154993,-0.0883 -0.253322,-0.24166 -0.09666,-0.15499 -0.143327,-0.356648 -0.04667,-0.203324 -0.04667,-0.429981 z"
         id="path2" /><path
         style="font-size:2.52194px;font-family:Besley;-inkscape-font-specification:Besley"
         d="m 34.500643,100.65681 q 0,0.029 0.0076,0.0391 0.0076,0.009 0.03531,0.009 h 0.728841 q 0.03152,0 0.03909,-0.009 0.0088,-0.0101 0.0088,-0.0416 v -0.0404 q 0,-0.029 -0.0076,-0.0378 -0.0076,-0.0101 -0.03783,-0.0101 h -0.204278 q -0.03405,0 -0.04413,-0.009 -0.0088,-0.009 -0.0088,-0.0416 v -0.33289 q 0,-0.0429 0.005,-0.0593 0.005,-0.0164 0.02522,-0.0366 l 0.303894,-0.312719 q 0.02522,-0.02648 0.04161,-0.02522 0.01639,0.0013 0.04035,0.03278 l 0.556088,0.733879 q 0.01765,0.0227 0.01135,0.0366 -0.005,0.0139 -0.04918,0.0139 H 35.82214 q -0.03279,0 -0.04035,0.0114 -0.0076,0.0101 -0.0076,0.0441 v 0.0404 q 0,0.0252 0.0076,0.034 0.0076,0.009 0.03531,0.009 h 0.746494 q 0.03279,0 0.03783,-0.005 0.005,-0.006 0.005,-0.0378 v -0.0454 q 0,-0.0328 -0.01009,-0.0416 -0.0088,-0.009 -0.04035,-0.009 h -0.16897 q -0.04287,0 -0.06053,-0.0113 -0.01765,-0.0114 -0.03531,-0.034 l -0.712448,-0.912943 q -0.01639,-0.02144 -0.01639,-0.03531 0.0013,-0.01513 0.02018,-0.03531 l 0.527086,-0.542217 q 0.02144,-0.02144 0.04161,-0.03152 0.02018,-0.01135 0.06683,-0.01135 h 0.174014 q 0.03405,0 0.04161,-0.01009 0.0088,-0.01009 0.0088,-0.04539 v -0.03279 q 0,-0.03152 -0.0076,-0.04035 -0.0076,-0.01009 -0.03783,-0.01009 h -0.658227 q -0.029,0 -0.04161,0.0076 -0.01135,0.0063 -0.01135,0.03783 v 0.04035 q 0,0.03152 0.0076,0.04287 0.0088,0.01009 0.04287,0.01009 h 0.148794 q 0.04287,0 0.04918,0.01135 0.0076,0.01009 -0.01387,0.03152 l -0.853677,0.88394 q -0.03278,0.03405 -0.04161,0.02774 -0.0076,-0.0076 -0.0076,-0.06179 v -0.822153 q 0,-0.04413 0.0088,-0.05674 0.0088,-0.01387 0.0517,-0.01387 h 0.184102 q 0.03405,0 0.04539,-0.0076 0.01261,-0.0088 0.01261,-0.04539 v -0.04792 q 0,-0.02396 -0.0088,-0.03026 -0.0076,-0.0076 -0.029,-0.0076 H 34.53595 q -0.02144,0 -0.029,0.0076 -0.0063,0.0076 -0.0063,0.03026 v 0.06557 q 0,0.02774 0.0063,0.03152 0.0063,0.0038 0.03405,0.0038 h 0.196711 q 0.03026,0 0.03531,0.005 0.005,0.005 0.005,0.03531 V 100.508 q 0,0.034 -0.0088,0.0466 -0.0076,0.0113 -0.04413,0.0113 h -0.184102 q -0.02396,0 -0.03278,0.008 -0.0076,0.008 -0.0076,0.0328 z m 2.790525,-0.973469 q -0.04413,0 -0.05926,-0.0088 -0.01387,-0.01009 -0.01387,-0.05674 v -0.605266 q 0,-0.04035 0.0088,-0.05044 0.01009,-0.01009 0.04918,-0.01009 h 0.421164 q 0.09583,0 0.181579,0.03909 0.08701,0.03909 0.141229,0.121053 0.05548,0.0807 0.05548,0.205538 0,0.124836 -0.05548,0.205538 -0.05422,0.0807 -0.141229,0.121053 -0.08574,0.03909 -0.181579,0.03909 z m 1.167659,1.021389 q 0.02774,0 0.03657,-0.008 0.0088,-0.009 0.0088,-0.0378 v -0.053 q 0,-0.0277 -0.01135,-0.034 -0.01135,-0.006 -0.03657,-0.006 h -0.07566 q -0.05927,0 -0.08322,-0.0429 -0.02396,-0.0429 -0.03026,-0.11349 -0.005,-0.0706 -0.0088,-0.1551 -0.0025,-0.0858 -0.02144,-0.17149 -0.01765,-0.08701 -0.06683,-0.161405 -0.04792,-0.0744 -0.145012,-0.121053 -0.02522,-0.01261 -0.02144,-0.03026 0.0038,-0.01891 0.03279,-0.029 0.161404,-0.05674 0.225713,-0.166448 0.06557,-0.109704 0.06557,-0.257238 0,-0.138707 -0.06305,-0.253455 -0.06179,-0.114748 -0.200494,-0.18284 -0.138707,-0.06809 -0.366942,-0.06809 h -0.960859 q -0.02396,0 -0.03026,0.0088 -0.005,0.0088 -0.005,0.03405 v 0.05548 q 0,0.02018 0.01009,0.03026 0.01009,0.01009 0.03026,0.01009 h 0.201755 q 0.02522,0 0.03026,0.01009 0.005,0.01009 0.005,0.03531 v 1.510649 q 0,0.0353 -0.0088,0.0466 -0.0088,0.0113 -0.04666,0.0113 h -0.16897 q -0.03531,0 -0.04413,0.0101 -0.0088,0.009 -0.0088,0.0454 v 0.0378 q 0,0.0277 0.0076,0.0366 0.0076,0.009 0.03531,0.009 h 0.691012 q 0.03531,0 0.04792,-0.008 0.01261,-0.009 0.01261,-0.0454 v -0.0404 q 0,-0.029 -0.0076,-0.0366 -0.0076,-0.009 -0.03531,-0.009 h -0.186624 q -0.03152,0 -0.04035,-0.0101 -0.0076,-0.0101 -0.0076,-0.0404 v -0.622921 q 0,-0.04287 0.01261,-0.05044 0.01261,-0.0076 0.05548,-0.0076 h 0.385856 q 0.122314,0 0.187885,0.04792 0.06683,0.04666 0.09583,0.124831 0.03026,0.0769 0.04035,0.17023 0.01009,0.0921 0.01891,0.18536 0.01009,0.0921 0.03657,0.17024 0.02648,0.0769 0.08701,0.12483 0.06179,0.0467 0.176536,0.0467 z m 0.43125,-1.752751 q 0.03909,0 0.05044,0.0076 0.01135,0.0063 0.01135,0.04539 v 1.490471 q 0,0.0466 -0.01135,0.0593 -0.01009,0.0113 -0.05674,0.0113 h -0.163926 q -0.02522,0 -0.03531,0.005 -0.01009,0.005 -0.01009,0.0303 v 0.058 q 0,0.0303 0.01135,0.0378 0.01135,0.008 0.03909,0.008 h 1.56108 q 0.02522,0 0.03279,-0.008 0.0076,-0.009 0.0076,-0.0353 v -0.56239 q 0,-0.0252 -0.01261,-0.0315 -0.01135,-0.006 -0.03531,-0.006 h -0.04792 q -0.01639,0 -0.02396,0.008 -0.0063,0.008 -0.0063,0.0328 -0.0025,0.18158 -0.04035,0.28246 -0.03783,0.10088 -0.129879,0.14123 -0.09205,0.0403 -0.258499,0.0403 h -0.524564 q -0.03657,0 -0.04666,-0.0101 -0.0088,-0.0101 -0.0088,-0.0454 v -0.678405 q 0,-0.03405 0.0076,-0.04413 0.0076,-0.01135 0.04035,-0.01135 h 0.166448 q 0.100878,0 0.163927,0.03405 0.06431,0.03405 0.09709,0.09331 0.03278,0.05801 0.03909,0.132395 0.0025,0.029 0.01261,0.0366 0.01009,0.006 0.02144,0.006 h 0.04161 q 0.02774,0 0.03405,-0.0101 0.0063,-0.0101 0.0063,-0.0403 v -0.605264 q 0,-0.02144 -0.0088,-0.029 -0.0088,-0.0088 -0.03026,-0.0088 h -0.04161 q -0.01891,0 -0.02522,0.0076 -0.0063,0.0076 -0.0088,0.03279 -0.0088,0.110965 -0.07944,0.180318 -0.07061,0.06935 -0.221931,0.06935 h -0.171492 q -0.03026,0 -0.03657,-0.01387 -0.0063,-0.01387 -0.0063,-0.04161 v -0.612831 q 0,-0.03657 0.01009,-0.04539 0.01135,-0.01009 0.04539,-0.01009 h 0.549783 q 0.141229,0 0.221931,0.03783 0.0807,0.03657 0.116009,0.126097 0.03657,0.08827 0.04035,0.242106 0.0013,0.02396 0.0063,0.03657 0.0063,0.01135 0.03405,0.01135 h 0.05044 q 0.03279,0 0.03405,-0.01009 0.0013,-0.01009 0.0013,-0.04035 v -0.48169 q 0,-0.04413 -0.01261,-0.0517 -0.01135,-0.0088 -0.05548,-0.0088 h -1.515686 q -0.02774,0 -0.03531,0.01009 -0.0076,0.0088 -0.0076,0.03783 v 0.03783 q 0,0.029 0.0063,0.04161 0.0076,0.01135 0.03909,0.01135 z m 2.935537,0.432513 q 0.0025,0.03152 0.005,0.03909 0.0025,0.0076 0.03657,0.0076 h 0.05548 q 0.02396,0 0.03279,-0.0038 0.01009,-0.005 0.01009,-0.029 v -0.543478 q 0,-0.02522 -0.0063,-0.03279 -0.005,-0.0088 -0.029,-0.0088 h -0.0807 q -0.01513,0 -0.02018,0.0025 -0.0038,0.0025 -0.0088,0.01261 l -0.03909,0.08953 q -0.01387,0.03405 -0.029,0.03278 -0.01513,-0.0013 -0.03657,-0.02018 -0.07566,-0.06557 -0.181579,-0.103399 -0.104661,-0.03909 -0.224453,-0.03909 -0.123575,0 -0.233279,0.03152 -0.109705,0.03026 -0.19419,0.09457 -0.08322,0.06431 -0.131141,0.161404 -0.04666,0.0971 -0.04666,0.229496 0,0.151317 0.05927,0.244629 0.06053,0.09331 0.158882,0.148794 0.09962,0.05422 0.218148,0.08827 0.118531,0.03278 0.237062,0.06305 0.118532,0.029 0.216887,0.07314 0.09962,0.04287 0.158882,0.117272 0.06053,0.0731 0.06053,0.19797 0,0.087 -0.04918,0.17401 -0.04792,0.087 -0.153838,0.14501 -0.104661,0.0567 -0.276153,0.0567 -0.171492,0 -0.293806,-0.0769 -0.122314,-0.0782 -0.191667,-0.19545 -0.06809,-0.11727 -0.07944,-0.23706 -0.0013,-0.0214 -0.0088,-0.0315 -0.0063,-0.0114 -0.03152,-0.0114 h -0.05296 q -0.02648,0 -0.03783,0.005 -0.01009,0.004 -0.01009,0.0303 v 0.57752 q 0,0.0277 0.0088,0.0353 0.01009,0.008 0.03909,0.008 h 0.03909 q 0.03657,0 0.04539,-0.005 0.01009,-0.005 0.02018,-0.0303 l 0.03909,-0.0971 q 0.01513,-0.0378 0.02648,-0.0404 0.01135,-0.003 0.03909,0.0227 0.08575,0.0757 0.20806,0.1261 0.123575,0.0492 0.266065,0.0492 0.215626,0 0.368203,-0.0681 0.152577,-0.0681 0.232018,-0.19545 0.0807,-0.12735 0.0807,-0.30389 0,-0.16267 -0.06053,-0.263541 -0.05927,-0.102139 -0.158882,-0.162665 -0.09836,-0.06053 -0.216887,-0.0971 -0.118531,-0.03657 -0.237062,-0.06557 -0.118532,-0.03026 -0.218148,-0.06935 -0.09836,-0.03909 -0.158882,-0.105921 -0.05927,-0.06809 -0.05927,-0.18158 0,-0.131141 0.09205,-0.22193 0.09205,-0.09079 0.311459,-0.09079 0.136185,0 0.243368,0.06053 0.107182,0.05927 0.171491,0.165187 0.06557,0.104661 0.07566,0.242107 z"
         id="path3" /><path
         style="font-family:Besley;-inkscape-font-specification:Besley"
         d="m 43.540971,98.204835 q -0.06,0 -0.07833,0.01 -0.01833,0.01 -0.01833,0.07 v 0.62664 q 0,0.04333 0.01,0.06 0.01,0.01667 0.05666,0.01667 h 0.03 q 0.04666,0 0.05833,-0.0083 0.01167,-0.0083 0.01167,-0.055 0.005,-0.203325 0.055,-0.319987 0.05166,-0.118328 0.173326,-0.166659 0.121662,-0.05 0.338319,-0.05 h 0.679971 q 0.108328,0 0.108328,0.02833 0,0.04166 -0.04833,0.085 -0.04666,0.04333 -0.08333,0.09 l -1.486602,1.884911 q -0.02,0.025 -0.02833,0.0517 -0.0083,0.025 -0.0083,0.0733 v 0.0467 q 0,0.0367 0.01333,0.0467 0.015,0.01 0.05,0.01 h 2.033246 q 0.07,0 0.08666,-0.015 0.01667,-0.015 0.01667,-0.0817 v -0.683295 q 0,-0.03666 -0.0083,-0.05333 -0.0083,-0.01667 -0.04833,-0.01667 h -0.05833 q -0.03666,0 -0.04333,0.01833 -0.0067,0.01833 -0.0083,0.05166 -0.005,0.233315 -0.05666,0.363315 -0.05,0.12999 -0.171659,0.18166 -0.119995,0.0517 -0.338319,0.0517 H 43.78096 q -0.03666,0 -0.04833,-0.01 -0.01167,-0.01 -0.01167,-0.0267 0,-0.035 0.04667,-0.075 0.04833,-0.04 0.09,-0.095 l 1.451604,-1.839913 q 0.02667,-0.03333 0.04667,-0.06666 0.02166,-0.03333 0.02166,-0.09333 v -0.05333 q 0,-0.03333 -0.0083,-0.045 -0.0067,-0.01167 -0.03833,-0.01167 z"
         id="path4" /><path
         style="font-size:2.52194px;font-family:Besley;-inkscape-font-specification:Besley"
         d="m 46.731714,100.29869 q -0.01387,0.0378 -0.02522,0.0542 -0.01009,0.0164 -0.02018,0.0164 -0.01513,0 -0.02648,-0.034 -0.01135,-0.0353 -0.02144,-0.0832 -0.01009,-0.0479 -0.02396,-0.087 l -0.388379,-1.147481 q -0.01261,-0.03657 -0.005,-0.05044 0.0088,-0.01513 0.06305,-0.01513 h 0.16897 q 0.029,0 0.04287,-0.0063 0.01387,-0.0076 0.01387,-0.03783 v -0.03152 q 0,-0.03783 -0.01765,-0.05044 -0.01639,-0.01261 -0.0517,-0.01261 H 45.7318 q -0.03657,0 -0.0454,0.01009 -0.0088,0.01009 -0.0088,0.04792 v 0.03278 q 0,0.03152 0.0088,0.04035 0.01009,0.0076 0.04287,0.0076 h 0.153838 q 0.04161,0 0.05674,0.01009 0.01513,0.0088 0.02648,0.04035 l 0.588873,1.677091 q 0.0088,0.024 0.02018,0.0366 0.01135,0.0139 0.04666,0.0139 h 0.05296 q 0.04287,0 0.05044,-0.0114 0.0076,-0.0101 0.01765,-0.0391 l 0.433773,-1.192879 q 0.02774,-0.0744 0.04666,-0.0744 0.01387,0 0.0227,0.03405 0.01009,0.03278 0.01891,0.07944 0.01009,0.04666 0.0227,0.08701 l 0.335418,1.071819 q 0.0088,0.0265 0.01891,0.0353 0.01009,0.0101 0.04413,0.0101 h 0.05296 q 0.03278,0 0.03909,-0.006 0.0076,-0.005 0.01639,-0.029 l 0.563653,-1.69474 q 0.01009,-0.029 0.01639,-0.03783 0.0076,-0.01009 0.04792,-0.01009 h 0.174013 q 0.03657,0 0.04666,-0.0088 0.01009,-0.01009 0.01009,-0.04666 v -0.03026 q 0,-0.03783 -0.01261,-0.04539 -0.01135,-0.0076 -0.04918,-0.0076 h -0.590134 q -0.03909,0 -0.04666,0.01261 -0.0076,0.01135 -0.0076,0.05044 v 0.02017 q 0,0.03405 0.0063,0.04539 0.0076,0.01009 0.04035,0.01009 h 0.186623 q 0.04035,0 0.04161,0.0063 0.0025,0.005 -0.0076,0.03405 l -0.429991,1.29123 q -0.01261,0.0404 -0.0227,0.0517 -0.0088,0.0113 -0.01765,0.0113 -0.0076,0 -0.01513,-0.0252 -0.0063,-0.0265 -0.01261,-0.0618 -0.0063,-0.0366 -0.01513,-0.0668 l -0.353072,-1.179004 q -0.01261,-0.04035 0.0038,-0.05044 0.01639,-0.01135 0.06683,-0.01135 h 0.07314 q 0.03909,0 0.058,-0.0076 0.01891,-0.0076 0.01891,-0.05044 v -0.03279 q 0,-0.03026 -0.0088,-0.03909 -0.0088,-0.0088 -0.03783,-0.0088 H 46.92212 q -0.03909,0 -0.04918,0.01009 -0.01009,0.01009 -0.01009,0.05044 v 0.0227 q 0,0.03405 0.0063,0.04539 0.0076,0.01009 0.04035,0.01009 h 0.110965 q 0.03783,0 0.0517,0.01009 0.01387,0.0088 0.0227,0.03783 l 0.03657,0.110965 q 0.01387,0.04287 0.0063,0.06935 -0.0076,0.02648 -0.02144,0.06683 z m 2.539594,0.36316 q 0,0.0315 0.01513,0.0378 0.01513,0.005 0.04287,0.005 h 0.698577 q 0.03405,0 0.04792,-0.006 0.01513,-0.008 0.01513,-0.0441 v -0.058 q 0,-0.0202 -0.0088,-0.0252 -0.0076,-0.005 -0.029,-0.005 H 49.83877 q -0.03783,0 -0.04413,-0.006 -0.0063,-0.006 -0.0063,-0.0441 v -0.569957 q 0,-0.058 0.01009,-0.08322 0.01009,-0.02648 0.03026,-0.058 l 0.508171,-0.77928 q 0.02396,-0.03657 0.03783,-0.05422 0.01513,-0.01891 0.07944,-0.01891 h 0.121053 q 0.03657,0 0.04666,-0.0088 0.01135,-0.0088 0.01135,-0.04413 v -0.03531 q 0,-0.029 -0.0063,-0.03909 -0.005,-0.01135 -0.03405,-0.01135 h -0.670836 q -0.03152,0 -0.03909,0.01009 -0.0063,0.01009 -0.0063,0.04287 v 0.04287 q 0,0.02522 0.0076,0.03405 0.0076,0.0088 0.03531,0.0088 h 0.196711 q 0.06431,0 0.07314,0.0076 0.01009,0.0063 -0.01513,0.04539 l -0.431252,0.66327 q -0.02144,0.03405 -0.03278,0.04666 -0.01009,0.01135 -0.02018,0 -0.01009,-0.01135 -0.03279,-0.04413 l -0.450166,-0.670836 q -0.01639,-0.02522 -0.005,-0.03657 0.01135,-0.01135 0.06179,-0.01135 h 0.174013 q 0.03279,0 0.04035,-0.01009 0.0076,-0.01009 0.0076,-0.04287 v -0.04035 q 0,-0.029 -0.0076,-0.03657 -0.0076,-0.0088 -0.03531,-0.0088 H 48.69643 q -0.02774,0 -0.03531,0.01009 -0.0076,0.0088 -0.0076,0.03783 v 0.05801 q 0,0.02396 0.0088,0.029 0.01009,0.0038 0.03405,0.0038 h 0.133663 q 0.0517,0 0.06557,0.0088 0.01387,0.0076 0.03279,0.03657 l 0.586351,0.877635 q 0.02144,0.03152 0.02774,0.06179 0.0063,0.03026 0.0063,0.087 v 0.4943 q 0,0.0315 -0.0088,0.0403 -0.0088,0.008 -0.04161,0.008 h -0.171492 q -0.03152,0 -0.04413,0.008 -0.01135,0.008 -0.01135,0.0429 z m 1.456421,-0.005 q 0,0.029 0.0076,0.0391 0.0076,0.009 0.03531,0.009 h 0.72884 q 0.03152,0 0.03909,-0.009 0.0088,-0.0101 0.0088,-0.0416 v -0.0404 q 0,-0.029 -0.0076,-0.0378 -0.0076,-0.0101 -0.03783,-0.0101 h -0.204277 q -0.03405,0 -0.04413,-0.009 -0.0088,-0.009 -0.0088,-0.0416 v -0.33289 q 0,-0.0429 0.005,-0.0593 0.005,-0.0164 0.02522,-0.0366 l 0.303894,-0.312719 q 0.02522,-0.02648 0.04161,-0.02522 0.01639,0.0013 0.04035,0.03278 l 0.556087,0.733879 q 0.01765,0.0227 0.01135,0.0366 -0.005,0.0139 -0.04918,0.0139 h -0.12988 q -0.03278,0 -0.04035,0.0114 -0.0076,0.0101 -0.0076,0.0441 v 0.0404 q 0,0.0252 0.0076,0.034 0.0076,0.009 0.03531,0.009 h 0.746495 q 0.03279,0 0.03783,-0.005 0.005,-0.006 0.005,-0.0378 v -0.0454 q 0,-0.0328 -0.01009,-0.0416 -0.0088,-0.009 -0.04035,-0.009 h -0.16897 q -0.04287,0 -0.06053,-0.0113 -0.01765,-0.0114 -0.03531,-0.034 L 51.80577,99.607737 q -0.01639,-0.02144 -0.01639,-0.03531 0.0013,-0.01513 0.02018,-0.03531 L 52.336645,98.9949 q 0.02144,-0.02144 0.04161,-0.03152 0.02018,-0.01135 0.06683,-0.01135 h 0.174014 q 0.03405,0 0.04161,-0.01009 0.0088,-0.01009 0.0088,-0.04539 v -0.03279 q 0,-0.03152 -0.0076,-0.04035 -0.0076,-0.01009 -0.03783,-0.01009 h -0.658227 q -0.029,0 -0.04161,0.0076 -0.01135,0.0063 -0.01135,0.03783 v 0.04035 q 0,0.03152 0.0076,0.04287 0.0088,0.01009 0.04287,0.01009 h 0.148795 q 0.04287,0 0.04918,0.01135 0.0076,0.01009 -0.01387,0.03152 l -0.853677,0.88394 q -0.03278,0.03405 -0.04161,0.02774 -0.0076,-0.0076 -0.0076,-0.06179 v -0.822153 q 0,-0.04413 0.0088,-0.05674 0.0088,-0.01387 0.0517,-0.01387 h 0.184102 q 0.03405,0 0.04539,-0.0076 0.01261,-0.0088 0.01261,-0.04539 v -0.04792 q 0,-0.02396 -0.0088,-0.03026 -0.0076,-0.0076 -0.029,-0.0076 h -0.746494 q -0.02144,0 -0.029,0.0076 -0.0063,0.0076 -0.0063,0.03026 v 0.06557 q 0,0.02774 0.0063,0.03152 0.0063,0.0038 0.03405,0.0038 h 0.196711 q 0.03026,0 0.03531,0.005 0.005,0.005 0.005,0.03531 v 1.515693 q 0,0.034 -0.0088,0.0466 -0.0076,0.0113 -0.04413,0.0113 H 50.76808 q -0.02396,0 -0.03278,0.008 -0.0076,0.008 -0.0076,0.0328 z m 2.287397,-0.880157 q -0.01639,0.01009 -0.02396,0.01639 -0.0063,0.0063 -0.0063,0.03531 v 0.07692 q 0,0.03783 0.0088,0.03026 0.01009,-0.0076 0.029,-0.01891 l 0.804499,-0.511954 q 0.01891,-0.01261 0.02396,-0.0227 0.005,-0.01009 0.005,-0.04287 v -0.06179 q 0,-0.03909 -0.01135,-0.029 -0.01135,0.0088 -0.03026,0.02018 z m 0.137445,-0.824674 q 0.03279,0 0.04287,0.0088 0.01009,0.0076 0.01009,0.03909 v 1.515681 q 0,0.0353 -0.01135,0.0429 -0.01135,0.008 -0.04792,0.008 h -0.186623 q -0.02144,0 -0.02648,0.009 -0.005,0.009 -0.005,0.0315 v 0.053 q 0,0.0315 0.01261,0.0391 0.01261,0.006 0.04161,0.006 h 1.535862 q 0.03531,0 0.04161,-0.0113 0.0076,-0.0114 0.0076,-0.0467 v -0.54978 q 0,-0.0252 -0.01135,-0.0303 -0.01009,-0.005 -0.03531,-0.005 h -0.05296 q -0.01765,0 -0.0227,0.009 -0.0038,0.009 -0.0038,0.0265 -0.0013,0.15888 -0.03909,0.26354 -0.03657,0.1034 -0.128619,0.1551 -0.09205,0.0504 -0.261021,0.0504 h -0.514476 q -0.02774,0 -0.04035,-0.006 -0.01261,-0.006 -0.01261,-0.034 v -1.52451 q 0,-0.03153 0.01135,-0.04035 0.01261,-0.0088 0.04035,-0.0088 h 0.18158 q 0.02522,0 0.03405,-0.0076 0.01009,-0.0076 0.01009,-0.03531 v -0.05296 q 0,-0.03026 -0.01135,-0.03657 -0.01009,-0.0063 -0.04035,-0.0063 h -0.701099 q -0.02396,0 -0.03279,0.0063 -0.0088,0.0063 -0.0088,0.03026 v 0.05927 q 0,0.02648 0.0076,0.03531 0.0076,0.0076 0.03152,0.0076 z m 1.88137,1.709871 q 0,0.0315 0.01513,0.0378 0.01513,0.005 0.04287,0.005 h 0.698578 q 0.03405,0 0.04792,-0.006 0.01513,-0.008 0.01513,-0.0441 v -0.058 q 0,-0.0202 -0.0088,-0.0252 -0.0076,-0.005 -0.029,-0.005 h -0.214365 q -0.03783,0 -0.04413,-0.006 -0.0063,-0.006 -0.0063,-0.0441 v -0.569957 q 0,-0.058 0.01009,-0.08322 0.01009,-0.02648 0.03026,-0.058 l 0.508171,-0.77928 q 0.02396,-0.03657 0.03783,-0.05422 0.01513,-0.01891 0.07944,-0.01891 h 0.121053 q 0.03657,0 0.04666,-0.0088 0.01135,-0.0088 0.01135,-0.04413 v -0.03531 q 0,-0.029 -0.0063,-0.03909 -0.005,-0.01135 -0.03405,-0.01135 h -0.670836 q -0.03152,0 -0.03909,0.01009 -0.0063,0.01009 -0.0063,0.04287 v 0.04287 q 0,0.02522 0.0076,0.03405 0.0076,0.0088 0.03531,0.0088 h 0.196712 q 0.06431,0 0.07314,0.0076 0.01009,0.0063 -0.01513,0.04539 l -0.431251,0.66327 q -0.02144,0.03405 -0.03279,0.04666 -0.01009,0.01135 -0.02018,0 -0.01009,-0.01135 -0.03278,-0.04413 l -0.450167,-0.670836 q -0.01639,-0.02522 -0.005,-0.03657 0.01135,-0.01135 0.06179,-0.01135 h 0.174014 q 0.03278,0 0.04035,-0.01009 0.0076,-0.01009 0.0076,-0.04287 v -0.04035 q 0,-0.029 -0.0076,-0.03657 -0.0076,-0.0088 -0.03531,-0.0088 h -0.746495 q -0.02774,0 -0.03531,0.01009 -0.0076,0.0088 -0.0076,0.03783 v 0.05801 q 0,0.02396 0.0088,0.029 0.01009,0.0038 0.03405,0.0038 h 0.133663 q 0.0517,0 0.06557,0.0088 0.01387,0.0076 0.03278,0.03657 l 0.586351,0.877635 q 0.02144,0.03152 0.02774,0.06179 0.0063,0.03026 0.0063,0.087 v 0.4943 q 0,0.0315 -0.0088,0.0403 -0.0088,0.008 -0.04161,0.008 h -0.171492 q -0.03152,0 -0.04413,0.008 -0.01135,0.008 -0.01135,0.0429 z"
         id="path5" /><path
         style="font-size:2.52194px;font-family:Besley;-inkscape-font-specification:Besley"
         d="m 58.026228,98.997374 q 0,-0.03152 0.0088,-0.03783 0.0088,-0.0076 0.03909,-0.0076 H 58.2759 q 0.02396,0 0.03783,-0.01009 0.01513,-0.01009 0.01513,-0.04287 v -0.04287 q 0,-0.029 -0.0088,-0.03531 -0.0076,-0.0076 -0.03657,-0.0076 h -0.736407 q -0.02144,0 -0.03026,0.0038 -0.0076,0.0038 -0.0076,0.029 v 0.06809 q 0,0.02017 0.0088,0.029 0.01009,0.0088 0.03405,0.0088 h 0.196711 q 0.029,0 0.03278,0.0088 0.005,0.0088 0.005,0.03405 v 1.508116 q 0,0.0429 -0.02648,0.053 -0.02648,0.0101 -0.05927,0.0101 h -0.133662 q -0.03531,0 -0.04666,0.008 -0.01135,0.008 -0.01135,0.0277 v 0.063 q 0,0.0239 0.01135,0.0328 0.01261,0.008 0.03909,0.008 h 0.718753 q 0.02648,0 0.03783,-0.009 0.01261,-0.009 0.01261,-0.0315 v -0.058 q 0,-0.0177 -0.005,-0.029 -0.005,-0.0114 -0.0227,-0.0114 H 58.0741 q -0.02774,0 -0.03783,-0.0113 -0.01009,-0.0126 -0.01009,-0.0441 z"
         id="path6" /><path
         style="font-family:Besley;-inkscape-font-specification:Besley"
         d="m 60.802246,98.601484 q 0.01833,-0.04333 0.02667,-0.04166 0.0083,0.0017 0.02666,0.05166 l 0.413316,1.099953 q 0.02,0.05333 0.01667,0.065 -0.0033,0.01167 -0.08,0.01167 h -0.843297 q -0.045,0 -0.05166,-0.0083 -0.0067,-0.0083 0.005,-0.03833 z m -1.359941,2.033246 q 0,0.05 0.01833,0.06 0.01833,0.01 0.065,0.01 h 0.796632 q 0.04,0 0.04667,-0.007 0.0067,-0.007 0.0067,-0.0467 v -0.08 q 0,-0.0317 -0.01167,-0.04 -0.01167,-0.01 -0.04167,-0.01 h -0.251656 q -0.055,0 -0.06166,-0.02 -0.0067,-0.02 0.01,-0.06 l 0.171659,-0.40332 q 0.01667,-0.03833 0.035,-0.05166 0.02,-0.015 0.07666,-0.015 h 0.966625 q 0.08,0 0.095,0.01667 0.015,0.01667 0.03666,0.07333 l 0.149993,0.39998 q 0.0083,0.0233 0.01,0.0417 0.0017,0.0183 -0.03833,0.0183 h -0.253322 q -0.03166,0 -0.04666,0.01 -0.01333,0.008 -0.01333,0.0433 v 0.0767 q 0,0.0367 0.015,0.045 0.01667,0.008 0.04833,0.008 h 0.983291 q 0.03833,0 0.045,-0.01 0.0083,-0.01 0.0083,-0.0483 v -0.0733 q 0,-0.0333 -0.0067,-0.0417 -0.0067,-0.01 -0.04,-0.01 h -0.263322 q -0.05667,0 -0.06666,-0.0167 -0.01,-0.0167 -0.02667,-0.0567 l -0.904961,-2.273234 q -0.005,-0.01333 -0.015,-0.01667 -0.0083,-0.0033 -0.02833,-0.0033 h -0.133328 q -0.01667,0 -0.02333,0.0033 -0.0067,0.0017 -0.01167,0.01333 l -0.988291,2.283234 q -0.015,0.035 -0.03167,0.0517 -0.01667,0.015 -0.07,0.015 h -0.209991 q -0.02666,0 -0.03666,0.01 -0.01,0.008 -0.01,0.0333 z"
         id="path7" /><path
         style="font-size:2.52194px;font-family:Besley;-inkscape-font-specification:Besley"
         d="m 62.403422,100.66185 q 0,0.0265 0.0076,0.0353 0.0088,0.008 0.03657,0.008 h 0.888984 q 0.201755,0 0.368203,-0.0706 0.166448,-0.0719 0.287501,-0.20049 0.121054,-0.12862 0.186624,-0.30011 0.06557,-0.172755 0.06557,-0.37451 0,-0.201756 -0.06305,-0.373247 -0.06179,-0.172753 -0.180319,-0.301372 -0.11727,-0.128619 -0.28624,-0.199234 -0.167709,-0.07188 -0.378291,-0.07188 H 62.47281 q -0.029,0 -0.04918,0.0063 -0.02018,0.0063 -0.02018,0.03026 v 0.05674 q 0,0.03279 0.01639,0.03909 0.01639,0.0063 0.05548,0.0063 h 0.161404 q 0.03278,0 0.03783,0.01135 0.0063,0.01135 0.0063,0.04413 v 1.508113 q 0,0.029 -0.005,0.0404 -0.005,0.0101 -0.03405,0.0101 h -0.19419 q -0.029,0 -0.03657,0.009 -0.0076,0.009 -0.0076,0.0391 z m 0.568698,-0.0958 q -0.03152,0 -0.04161,-0.006 -0.01009,-0.006 -0.01009,-0.0366 v -1.515688 q 0,-0.03657 0.0088,-0.04539 0.01009,-0.01009 0.0454,-0.01009 h 0.361898 q 0.219409,0 0.355594,0.105921 0.136184,0.105922 0.199233,0.288762 0.06305,0.182841 0.06305,0.412338 0,0.229496 -0.058,0.412337 -0.05801,0.18284 -0.192929,0.28876 -0.134923,0.10592 -0.366942,0.10592 z m 2.2874,-0.26733 q -0.01387,0.0378 -0.02522,0.0542 -0.01009,0.0164 -0.02018,0.0164 -0.01513,0 -0.02648,-0.034 -0.01135,-0.0353 -0.02144,-0.0832 -0.01009,-0.0479 -0.02396,-0.087 l -0.388379,-1.147481 q -0.01261,-0.03657 -0.005,-0.05044 0.0088,-0.01513 0.06305,-0.01513 h 0.16897 q 0.029,0 0.04287,-0.0063 0.01387,-0.0076 0.01387,-0.03783 v -0.03152 q 0,-0.03783 -0.01765,-0.05044 -0.01639,-0.01261 -0.0517,-0.01261 h -0.708665 q -0.03657,0 -0.04539,0.01009 -0.0088,0.01009 -0.0088,0.04792 v 0.03278 q 0,0.03152 0.0088,0.04035 0.01009,0.0076 0.04287,0.0076 h 0.153838 q 0.04161,0 0.05674,0.01009 0.01513,0.0088 0.02648,0.04035 l 0.588873,1.677091 q 0.0088,0.024 0.02018,0.0366 0.01135,0.0139 0.04666,0.0139 h 0.05296 q 0.04287,0 0.05044,-0.0114 0.0076,-0.0101 0.01765,-0.0391 l 0.433774,-1.192879 q 0.02774,-0.0744 0.04666,-0.0744 0.01387,0 0.0227,0.03405 0.01009,0.03278 0.01891,0.07944 0.01009,0.04666 0.0227,0.08701 l 0.335418,1.071819 q 0.0088,0.0265 0.01891,0.0353 0.01009,0.0101 0.04413,0.0101 h 0.05296 q 0.03278,0 0.03909,-0.006 0.0076,-0.005 0.01639,-0.029 l 0.563653,-1.69474 q 0.01009,-0.029 0.01639,-0.03783 0.0076,-0.01009 0.04792,-0.01009 h 0.174014 q 0.03657,0 0.04666,-0.0088 0.01009,-0.01009 0.01009,-0.04666 V 98.8667 q 0,-0.03783 -0.01261,-0.04539 -0.01135,-0.0076 -0.04918,-0.0076 h -0.590134 q -0.03909,0 -0.04666,0.01261 -0.0076,0.01135 -0.0076,0.05044 v 0.02017 q 0,0.03405 0.0063,0.04539 0.0076,0.01009 0.04035,0.01009 h 0.186624 q 0.04035,0 0.04161,0.0063 0.0025,0.005 -0.0076,0.03405 l -0.429991,1.29123 q -0.01261,0.0404 -0.0227,0.0517 -0.0088,0.0113 -0.01765,0.0113 -0.0076,0 -0.01513,-0.0252 -0.0063,-0.0265 -0.01261,-0.0618 -0.0063,-0.0366 -0.01513,-0.0668 l -0.353072,-1.179004 q -0.01261,-0.04035 0.0038,-0.05044 0.01639,-0.01135 0.06683,-0.01135 h 0.07314 q 0.03909,0 0.058,-0.0076 0.01891,-0.0076 0.01891,-0.05044 v -0.03279 q 0,-0.03026 -0.0088,-0.03909 -0.0088,-0.0088 -0.03783,-0.0088 h -0.600221 q -0.03909,0 -0.04918,0.01009 -0.01009,0.01009 -0.01009,0.05044 v 0.0227 q 0,0.03405 0.0063,0.04539 0.0076,0.01009 0.04035,0.01009 h 0.110965 q 0.03783,0 0.0517,0.01009 0.01387,0.0088 0.0227,0.03783 l 0.03657,0.110965 q 0.01387,0.04287 0.0063,0.06935 -0.0076,0.02648 -0.02144,0.06683 z m 2.231919,-1.346711 q 0.03909,0 0.05044,0.0076 0.01135,0.0063 0.01135,0.04539 v 1.490471 q 0,0.0466 -0.01135,0.0593 -0.01009,0.0113 -0.05674,0.0113 h -0.163926 q -0.02522,0 -0.03531,0.005 -0.01009,0.005 -0.01009,0.0303 v 0.058 q 0,0.0303 0.01135,0.0378 0.01135,0.008 0.03909,0.008 h 1.561081 q 0.02522,0 0.03279,-0.008 0.0076,-0.009 0.0076,-0.0353 v -0.56239 q 0,-0.0252 -0.01261,-0.0315 -0.01135,-0.006 -0.03531,-0.006 h -0.04792 q -0.01639,0 -0.02396,0.008 -0.0063,0.008 -0.0063,0.0328 -0.0025,0.18158 -0.04035,0.28246 -0.03783,0.10088 -0.12988,0.14123 -0.09205,0.0403 -0.258499,0.0403 h -0.524564 q -0.03657,0 -0.04666,-0.0101 -0.0088,-0.0101 -0.0088,-0.0454 v -0.678405 q 0,-0.03405 0.0076,-0.04413 0.0076,-0.01135 0.04035,-0.01135 h 0.166448 q 0.100877,0 0.163926,0.03405 0.06431,0.03405 0.09709,0.09331 0.03279,0.05801 0.03909,0.132395 0.0025,0.029 0.01261,0.0366 0.01009,0.006 0.02144,0.006 h 0.04161 q 0.02774,0 0.03405,-0.0101 0.0063,-0.0101 0.0063,-0.0403 v -0.605264 q 0,-0.02144 -0.0088,-0.029 -0.0088,-0.0088 -0.03026,-0.0088 h -0.04161 q -0.01892,0 -0.02522,0.0076 -0.0063,0.0076 -0.0088,0.03279 -0.0088,0.110965 -0.07944,0.180318 -0.07061,0.06935 -0.22193,0.06935 h -0.171492 q -0.03026,0 -0.03657,-0.01387 -0.0063,-0.01387 -0.0063,-0.04161 v -0.612831 q 0,-0.03657 0.01009,-0.04539 0.01135,-0.01009 0.04539,-0.01009 h 0.549783 q 0.141229,0 0.221931,0.03783 0.0807,0.03657 0.116009,0.126097 0.03657,0.08827 0.04035,0.242106 0.0013,0.02396 0.0063,0.03657 0.0063,0.01135 0.03405,0.01135 h 0.05044 q 0.03278,0 0.03405,-0.01009 0.0013,-0.01009 0.0013,-0.04035 v -0.48169 q 0,-0.04413 -0.01261,-0.0517 -0.01135,-0.0088 -0.05548,-0.0088 H 67.31888 q -0.02774,0 -0.03531,0.01009 -0.0076,0.0088 -0.0076,0.03783 v 0.03783 q 0,0.029 0.0063,0.04161 0.0076,0.01135 0.03909,0.01135 z m 1.895238,0 q 0.04413,0 0.05674,0.0088 0.01387,0.0088 0.01387,0.05296 v 1.487941 q 0,0.0429 -0.01261,0.0542 -0.01261,0.0101 -0.05674,0.0101 h -0.137446 q -0.029,0 -0.04413,0.008 -0.01387,0.006 -0.01387,0.0391 v 0.0454 q 0,0.0315 0.01009,0.0391 0.01009,0.008 0.04287,0.008 h 0.612831 q 0.03152,0 0.04161,-0.008 0.01135,-0.009 0.01135,-0.0416 v -0.0378 q 0,-0.0277 -0.0076,-0.0391 -0.0063,-0.0126 -0.03531,-0.0126 H 69.6767 q -0.03657,0 -0.04666,-0.009 -0.0088,-0.0101 -0.0088,-0.0454 v -1.278622 q 0,-0.09331 0.01891,-0.100877 0.01892,-0.0088 0.04666,0.02774 l 1.184051,1.538379 q 0.01261,0.0164 0.02648,0.024 0.01387,0.008 0.04287,0.008 h 0.0076 q 0.02522,0 0.03026,-0.0177 0.005,-0.0164 0.005,-0.0391 v -1.65691 q 0,-0.04161 0.01009,-0.05296 0.01135,-0.01135 0.05044,-0.01135 h 0.158882 q 0.03279,0 0.03909,-0.01135 0.0063,-0.01261 0.0063,-0.04413 v -0.04666 q 0,-0.02774 -0.02018,-0.03152 -0.01891,-0.005 -0.04287,-0.005 h -0.582568 q -0.03909,0 -0.05044,0.01765 -0.01009,0.01639 -0.01009,0.05422 v 0.02774 q 0,0.03152 0.03026,0.03531 0.03026,0.0038 0.058,0.0038 h 0.123575 q 0.04035,0 0.05296,0.0088 0.01261,0.0088 0.01261,0.05044 v 1.11722 q 0,0.0757 -0.01765,0.0857 -0.01765,0.009 -0.04287,-0.024 l -0.996167,-1.307628 q -0.029,-0.03909 -0.04918,-0.05422 -0.01891,-0.01513 -0.09205,-0.01513 h -0.383335 q -0.03279,0 -0.03909,0.01261 -0.0063,0.01135 -0.0063,0.04413 v 0.03783 q 0,0.02522 0.0076,0.03531 0.0076,0.0088 0.03531,0.0088 z m 2.491678,1.701051 q 0,0.0353 0.01009,0.0441 0.01135,0.008 0.04792,0.008 h 0.764148 q 0.03405,0 0.05296,-0.008 0.02018,-0.008 0.02018,-0.0454 v -0.024 q 0,-0.0391 -0.0076,-0.0504 -0.0076,-0.0114 -0.04539,-0.0114 h -0.206799 q -0.04666,0 -0.05801,-0.0113 -0.01009,-0.0126 -0.01009,-0.0605 v -1.500559 q 0,-0.03405 0.0076,-0.04413 0.0076,-0.01009 0.04035,-0.01009 h 0.128619 q 0.163926,0 0.254716,0.04161 0.09205,0.04161 0.12988,0.141229 0.03909,0.09962 0.04287,0.274891 0.0013,0.03026 0.0076,0.04539 0.0063,0.01387 0.04161,0.01387 h 0.03026 q 0.029,0 0.03783,-0.005 0.01009,-0.0063 0.01009,-0.03405 v -0.544739 q 0,-0.03783 -0.0088,-0.04792 -0.0076,-0.01135 -0.04413,-0.01135 h -1.588822 q -0.04287,0 -0.0517,0.01135 -0.0088,0.01135 -0.0088,0.05548 v 0.511953 q 0,0.02774 0.005,0.04666 0.0063,0.01765 0.03783,0.01765 h 0.03531 q 0.03278,0 0.03909,-0.01135 0.0076,-0.01135 0.0088,-0.04035 0.0038,-0.177797 0.04161,-0.278674 0.03783,-0.102139 0.12988,-0.143751 0.09205,-0.04287 0.257238,-0.04287 h 0.121053 q 0.03531,0 0.04539,0.01009 0.01009,0.01009 0.01009,0.04666 v 1.50056 q 0,0.0466 -0.01135,0.058 -0.01135,0.0113 -0.05674,0.0113 h -0.206799 q -0.02774,0 -0.04035,0.008 -0.01261,0.006 -0.01261,0.0366 z"
         id="path8" /></g></g></svg>
