<?xml version="1.0" encoding="UTF-8" standalone="no"?>
<!-- Created with Inkscape (http://www.inkscape.org/) -->

<svg
   width="105mm"
   height="148mm"
   viewBox="0 0 105 148"
   version="1.1"
   id="svg1"
   xml:space="preserve"
   xmlns="http://www.w3.org/2000/svg"
   xmlns:svg="http://www.w3.org/2000/svg"><defs
     id="defs1" /><g
     id="layer1"><rect
       style="display:none;fill:#ffffff;fill-opacity:1;stroke:none;stroke-width:0.25;stroke-dasharray:3, 0.25"
       id="rect6"
       width="105"
       height="147.99998"
       x="0"
       y="0" /><path
       style="fill:#000000;stroke-width:0.558804"
       d="M 51.222928,79.634703 C 47.289334,77.52261 43.967227,73.852097 41.956511,69.396473 40.794675,66.821917 40.559859,65.103139 40.42992,58.222319 L 40.33569,53.232362 H 52.5 64.66431 l -0.07834,5.433509 c -0.04309,2.98843 -0.150049,5.932506 -0.2377,6.542389 -0.799023,5.559651 -5.123019,11.503155 -10.52397,14.465614 -0.616822,0.338331 -1.18235,0.614035 -1.25673,0.612676 -0.07438,-0.0013 -0.679471,-0.29469 -1.344646,-0.651847 z m 2.977229,-1.046104 c 1.710701,-1.074012 2.922027,-2.050563 4.123946,-3.324661 1.071771,-1.136134 2.31394,-2.7683 2.31394,-3.040435 0,-0.186571 -7.950452,-17.51652 -8.120012,-17.699543 -0.05757,-0.06214 -1.790938,3.397563 -3.851932,7.688231 -2.060994,4.290667 -3.946094,8.207995 -4.18911,8.705173 l -0.441848,0.903959 0.675536,0.944173 c 1.882575,2.631211 4.266658,4.801664 6.834555,6.222136 0.406589,0.224911 0.878799,0.410134 1.049356,0.411607 0.170557,0.0015 0.893062,-0.363315 1.605569,-0.81064 z"
       id="path1" /><text
       xml:space="preserve"
       style="font-size:4.45716px;line-height:1.3;font-family:Niramit;-inkscape-font-specification:Niramit;text-align:center;writing-mode:lr-tb;direction:ltr;text-anchor:middle;fill:#000000;fill-opacity:1;stroke:none;stroke-width:0.143574;stroke-dasharray:1.72288, 0.143574"
       x="52.384113"
       y="95.02095"
       id="text1"><tspan
         id="tspan1"
         x="52.384113"
         y="95.02095"
         style="font-style:normal;font-variant:normal;font-weight:normal;font-stretch:normal;font-size:4.45716px;font-family:Besley;-inkscape-font-specification:Besley;fill:#000000;fill-opacity:1;stroke:none;stroke-width:0.143574">Kompleta</tspan></text><text
       xml:space="preserve"
       style="font-size:3.33319px;line-height:1.3;font-family:Niramit;-inkscape-font-specification:Niramit;text-align:center;writing-mode:lr-tb;direction:ltr;text-anchor:middle;fill:#000000;fill-opacity:1;stroke:none;stroke-width:0.147632;stroke-dasharray:1.77158, 0.147632"
       x="52.471386"
       y="100.70473"
       id="text1-5"><tspan
         id="tspan1-5"
         x="52.471386"
         y="100.70473"
         style="font-style:normal;font-variant:normal;font-weight:normal;font-stretch:normal;font-size:3.33319px;font-family:Besley;-inkscape-font-specification:Besley;fill:#000000;fill-opacity:1;stroke:none;stroke-width:0.147632">O<tspan
   style="font-size:2.52194px;stroke-width:0.147632"
   id="tspan2">KRES</tspan> Z<tspan
   style="font-size:2.52194px;stroke-width:0.147632"
   id="tspan3">WYKŁY</tspan> <tspan
   style="font-size:2.52194px;stroke-width:0.147632"
   id="tspan5">I</tspan> A<tspan
   style="font-size:2.52194px;stroke-width:0.147632"
   id="tspan4">DWENT</tspan></tspan></text></g></svg>
